HIERARCHY
ROOT Hips
{
  OFFSET 5.84602e-005 68.8428 3.50346
  CHANNELS 6 Xposition Yposition Zposition Zrotation Xrotation Yrotation
  JOINT Spine
  {
    OFFSET 0 8.597 -4.6522
    CHANNELS 3 Zrotation Xrotation Yrotation
    JOINT Spine1
    {
      OFFSET 0 7.8454 0.4098
      CHANNELS 3 Zrotation Xrotation Yrotation
      JOINT Spine2
      {
        OFFSET 0 9.7078 -2.1609
        CHANNELS 3 Zrotation Xrotation Yrotation
        JOINT Neck
        {
          OFFSET 0 21.8761 -0.4549
          CHANNELS 3 Zrotation Xrotation Yrotation
          JOINT Head
          {
            OFFSET 0 12.3537 3.3602
            CHANNELS 3 Zrotation Xrotation Yrotation
            End Site
            {
              OFFSET 0.0001 18.9506 0.5657
            }
          }
        }
        JOINT LeftShoulder
        {
          OFFSET 2.2086 21.1115 7.2329
          CHANNELS 3 Zrotation Xrotation Yrotation
          JOINT LeftArm
          {
            OFFSET 13.1193 3.0282 -4.8998
            CHANNELS 3 Zrotation Xrotation Yrotation
            JOINT LeftForeArm
            {
              OFFSET 27.4081 -0.0973053 -0.2375
              CHANNELS 3 Zrotation Xrotation Yrotation
              JOINT LeftHand
              {
                OFFSET 22.8641 0.0662994 -0.1369
                CHANNELS 3 Zrotation Xrotation Yrotation
                JOINT LeftHandIndex1
                {
                  OFFSET 8.8614 0.775009 2.4612
                  CHANNELS 3 Zrotation Xrotation Yrotation
                  JOINT LeftHandIndex2
                  {
                    OFFSET 3.3146 -0.808304 0.5841
                    CHANNELS 3 Zrotation Xrotation Yrotation
                    JOINT LeftHandIndex3
                    {
                      OFFSET 2.2628 -0.552002 0.3989
                      CHANNELS 3 Zrotation Xrotation Yrotation
                      End Site
                      {
                        OFFSET 1.6102 -0.4807 0.2612
                      }
                    }
                  }
                }
                JOINT LeftHandMiddle1
                {
                  OFFSET 8.9937 0.895004 0.2143
                  CHANNELS 3 Zrotation Xrotation Yrotation
                  JOINT LeftHandMiddle2
                  {
                    OFFSET 4.0984 0.0113983 -0.0242
                    CHANNELS 3 Zrotation Xrotation Yrotation
                    JOINT LeftHandMiddle3
                    {
                      OFFSET 2.2716 0.00689697 -0.0138001
                      CHANNELS 3 Zrotation Xrotation Yrotation
                      End Site
                      {
                        OFFSET 2.0404 -0.1441 0.0027
                      }
                    }
                  }
                }
                JOINT LeftHandRing1
                {
                  OFFSET 8.5234 0.597198 -2.0164
                  CHANNELS 3 Zrotation Xrotation Yrotation
                  JOINT LeftHandRing2
                  {
                    OFFSET 3.7188 -0.188293 -0.2328
                    CHANNELS 3 Zrotation Xrotation Yrotation
                    JOINT LeftHandRing3
                    {
                      OFFSET 2.1191 -0.106598 -0.1332
                      CHANNELS 3 Zrotation Xrotation Yrotation
                      End Site
                      {
                        OFFSET 1.8737 -0.2304 -0.0886
                      }
                    }
                  }
                }
                JOINT LeftHandPinky1
                {
                  OFFSET 7.9094 -0.601089 -3.4825
                  CHANNELS 3 Zrotation Xrotation Yrotation
                  JOINT LeftHandPinky2
                  {
                    OFFSET 2.2874 -0.477005 -0.6314
                    CHANNELS 3 Zrotation Xrotation Yrotation
                    JOINT LeftHandPinky3
                    {
                      OFFSET 1.6774 -0.349396 -0.4633
                      CHANNELS 3 Zrotation Xrotation Yrotation
                      End Site
                      {
                        OFFSET 1.4888 -0.4091 -0.3416
                      }
                    }
                  }
                }
                JOINT LeftHandThumb1
                {
                  OFFSET 1.833 -1.3875 1.3896
                  CHANNELS 3 Zrotation Xrotation Yrotation
                  JOINT LeftHandThumb2
                  {
                    OFFSET 3.4129 -1.121 2.5732
                    CHANNELS 3 Zrotation Xrotation Yrotation
                    JOINT LeftHandThumb3
                    {
                      OFFSET 2.2474 -0.804199 1.6192
                      CHANNELS 3 Zrotation Xrotation Yrotation
                      End Site
                      {
                        OFFSET 1.6527 -0.5689 1.1317
                      }
                    }
                  }
                }
              }
            }
          }
        }
        JOINT RightShoulder
        {
          OFFSET -2.2086 21.1115 7.2329
          CHANNELS 3 Zrotation Xrotation Yrotation
          JOINT RightArm
          {
            OFFSET -13.1216 3.0287 -4.9007
            CHANNELS 3 Zrotation Xrotation Yrotation
            JOINT RightForeArm
            {
              OFFSET -27.4081 -0.0973053 -0.2375
              CHANNELS 3 Zrotation Xrotation Yrotation
              JOINT RightHand
              {
                OFFSET -22.8641 0.0664063 -0.1369
                CHANNELS 3 Zrotation Xrotation Yrotation
                JOINT RightHandIndex1
                {
                  OFFSET -8.8614 0.774994 2.4612
                  CHANNELS 3 Zrotation Xrotation Yrotation
                  JOINT RightHandIndex2
                  {
                    OFFSET -3.3146 -0.808304 0.5841
                    CHANNELS 3 Zrotation Xrotation Yrotation
                    JOINT RightHandIndex3
                    {
                      OFFSET -2.2628 -0.552002 0.3989
                      CHANNELS 3 Zrotation Xrotation Yrotation
                      End Site
                      {
                        OFFSET -1.6102 -0.4807 0.2612
                      }
                    }
                  }
                }
                JOINT RightHandMiddle1
                {
                  OFFSET -8.9937 0.894989 0.2143
                  CHANNELS 3 Zrotation Xrotation Yrotation
                  JOINT RightHandMiddle2
                  {
                    OFFSET -4.0984 0.0113983 -0.0242
                    CHANNELS 3 Zrotation Xrotation Yrotation
                    JOINT RightHandMiddle3
                    {
                      OFFSET -2.2716 0.00691223 -0.0138001
                      CHANNELS 3 Zrotation Xrotation Yrotation
                      End Site
                      {
                        OFFSET -2.0404 -0.1441 0.0027
                      }
                    }
                  }
                }
                JOINT RightHandRing1
                {
                  OFFSET -8.5234 0.597198 -2.0164
                  CHANNELS 3 Zrotation Xrotation Yrotation
                  JOINT RightHandRing2
                  {
                    OFFSET -3.7188 -0.188309 -0.2328
                    CHANNELS 3 Zrotation Xrotation Yrotation
                    JOINT RightHandRing3
                    {
                      OFFSET -2.1191 -0.106598 -0.1332
                      CHANNELS 3 Zrotation Xrotation Yrotation
                      End Site
                      {
                        OFFSET -1.8737 -0.2304 -0.0886
                      }
                    }
                  }
                }
                JOINT RightHandPinky1
                {
                  OFFSET -7.9094 -0.601105 -3.4825
                  CHANNELS 3 Zrotation Xrotation Yrotation
                  JOINT RightHandPinky2
                  {
                    OFFSET -2.2874 -0.477005 -0.6314
                    CHANNELS 3 Zrotation Xrotation Yrotation
                    JOINT RightHandPinky3
                    {
                      OFFSET -1.6774 -0.349396 -0.4633
                      CHANNELS 3 Zrotation Xrotation Yrotation
                      End Site
                      {
                        OFFSET -1.4888 -0.4091 -0.3416
                      }
                    }
                  }
                }
                JOINT RightHandThumb1
                {
                  OFFSET -1.833 -1.38751 1.3896
                  CHANNELS 3 Zrotation Xrotation Yrotation
                  JOINT RightHandThumb2
                  {
                    OFFSET -3.41299 -1.12099 2.5732
                    CHANNELS 3 Zrotation Xrotation Yrotation
                    JOINT RightHandThumb3
                    {
                      OFFSET -2.24741 -0.804108 1.6192
                      CHANNELS 3 Zrotation Xrotation Yrotation
                      End Site
                      {
                        OFFSET -1.6527 -0.5689 1.1317
                      }
                    }
                  }
                }
              }
            }
          }
        }
      }
    }
  }
  JOINT RightUpLeg
  {
    OFFSET -9.1966 3.8861 -0.7581
    CHANNELS 3 Zrotation Xrotation Yrotation
    JOINT RightLeg
    {
      OFFSET -0.7359 -41.0265 0
      CHANNELS 3 Zrotation Xrotation Yrotation
      JOINT RightFoot
      {
        OFFSET 0 -40.2855 0
        CHANNELS 3 Zrotation Xrotation Yrotation
        JOINT RightToeBase
        {
          OFFSET 0 -5.6122 11.7359
          CHANNELS 3 Zrotation Xrotation Yrotation
          End Site
          {
            OFFSET 0 0 7.8731
          }
        }
      }
    }
  }
  JOINT LeftUpLeg
  {
    OFFSET 9.1965 3.8864 -0.7581
    CHANNELS 3 Zrotation Xrotation Yrotation
    JOINT LeftLeg
    {
      OFFSET 0.7359 -41.0268 0
      CHANNELS 3 Zrotation Xrotation Yrotation
      JOINT LeftFoot
      {
        OFFSET 0 -40.2855 0
        CHANNELS 3 Zrotation Xrotation Yrotation
        JOINT LeftToeBase
        {
          OFFSET 0 -5.6122 11.7359
          CHANNELS 3 Zrotation Xrotation Yrotation
          End Site
          {
            OFFSET 0 0 7.8731
          }
        }
      }
    }
  }
}
MOTION
Frames:	4
Frame Time:	0.0333333
5.84602e-005 68.8428 3.50346 0 0 -0 0 0 -0 0 0 -0 0 0 -0 0 0 -0 0 0 -0 0 0 -0 0 0 -0 0 0 -0 0 0 -0 0 0 -0 0 0 -0 0 0 -0 0 0 -0 -0.0146107 -8.87603e-005 -2.63497e-007 2.99804e-018 -2.42657e-020 -1.42182e-022 0 0 -0 -0.0187562 -0.001176 5.858e-005 5.06224e-018 3.88251e-019 1.21329e-020 0 0 -0 -0.012269 -0.00324817 0.000675346 -1.74678e-018 3.88251e-019 -0 0 0 -0 0 0 -0 0 0 -0 0 0 -0 0 0 -0 0 0 -0 0 0 -0 0 0 -0 0 0 -0 0 0 -0 0 0 -0 0.0149955 -9.10982e-005 2.64101e-007 -9.69331e-018 1.21329e-020 -4.7394e-023 0 0 -0 0.0189956 -0.00119102 -5.96516e-005 -5.41541e-019 0 2.42657e-020 0 0 -0 0.0122698 -0.00324857 -0.000673756 -2.00796e-019 0 -1.94126e-019 0 0 -0 0 0 -0 0 0 -0 3.39842 1.33031 -0.0637918 -5.65207e-008 0.834868 -0.000436188 -3.39935 -2.16518 -0.0642563 -8.89002e-024 -1.18485e-023 -1.48106e-024 -3.39844 1.35642 0.0640283 -3.18788e-007 0.782166 -0.000588827 3.39931 -2.13858 0.0634662 1.1399e-023 0 -0 
-37.3124 -1.27656 -8.37231 19.3532 -29.3666 18.0641 0.246031 8.08799 0.338654 0.450071 16.1772 0.651703 0.450063 16.1772 0.65171 -14.0031 0.000253444 -8.00311 -16.0023 -1.60541e-006 -7.00198 4.21092 0.77802 -1.16072 -61.8996 25.6599 -33.6936 -12.5702 1.34861 -77.4337 17.9751 1.82813 5.22456 -4.06373e-006 1.68621e-007 2.59444e-006 -4.06373e-006 1.68621e-007 2.59444e-006 -6.01129e-006 2.2848e-006 4.00595e-006 -4.06373e-006 1.68621e-007 2.59444e-006 -0.0146026 -8.60699e-005 -3.8701e-006 -6.01141e-006 2.28429e-006 4.00624e-006 -4.06373e-006 1.68621e-007 2.59444e-006 -0.0187677 -0.00117924 5.63695e-005 -6.0114e-006 2.28414e-006 4.00639e-006 -4.06373e-006 1.68621e-007 2.59444e-006 -0.0122255 -0.00323716 0.000683215 -6.01126e-006 2.28438e-006 4.00637e-006 -4.06373e-006 1.68621e-007 2.59444e-006 -4.06373e-006 1.68621e-007 2.59444e-006 -6.01129e-006 2.2848e-006 4.00595e-006 -7.42535 -0.877027 10.0476 21.7118 25.8195 23.3224 -0.0407814 -38.7756 0.0579247 23.5137 -2.50994 24.6365 4.2824e-007 5.87402e-007 -4.43094e-007 3.18055e-015 -3.18055e-015 -3.18055e-015 4.2824e-007 5.87402e-007 -4.43094e-007 4.2824e-007 5.87402e-007 -4.43094e-007 0.0149593 -8.65014e-005 1.66537e-006 4.28248e-007 5.87344e-007 -4.43171e-007 4.2824e-007 5.87402e-007 -4.43094e-007 0.0189847 -0.00118903 -5.48803e-005 4.28246e-007 5.87328e-007 -4.43196e-007 4.2824e-007 5.87402e-007 -4.43094e-007 0.0122617 -0.00323897 -0.000667446 4.28231e-007 5.87355e-007 -4.43169e-007 4.2824e-007 5.87402e-007 -4.43094e-007 3.18055e-015 -3.18055e-015 -3.18055e-015 4.2824e-007 5.87402e-007 -4.43094e-007 73.3314 -81.9962 70.3167 20.805 79.2355 -25.4138 -5.86172 34.0004 29.8228 1.10908e-006 -5.90848e-007 -2.54696e-006 32.7517 -62.6136 88.2388 -153.455 52.6316 166.496 -33.1489 -13.7505 -50.2964 5.93813e-007 -1.62403e-006 1.52357e-006 
-37.3124 -1.27656 -8.37231 19.3532 -29.3666 18.0641 0.246031 8.08799 0.338654 0.450071 16.1772 0.651703 0.450063 16.1772 0.65171 -14.0031 0.000253444 -8.00311 -16.0023 -1.60541e-006 -7.00198 4.21092 0.77802 -1.16072 -61.7958 25.6671 -33.5213 -12.5702 1.34862 -77.4337 17.9751 1.82813 5.22456 6.01202e-006 -2.29652e-006 -4.00024e-006 -4.06652e-006 1.75509e-007 2.58925e-006 4.06652e-006 -1.75509e-007 -2.58925e-006 6.01202e-006 -2.29652e-006 -4.00024e-006 -0.0146266 -9.38061e-005 -1.73871e-006 4.06648e-006 -1.75179e-007 -2.58928e-006 6.01202e-006 -2.29652e-006 -4.00024e-006 -0.0187675 -0.0011779 5.47805e-005 4.06645e-006 -1.75089e-007 -2.58932e-006 6.01202e-006 -2.29652e-006 -4.00024e-006 -0.0122891 -0.00325641 0.000680223 4.06642e-006 -1.75262e-007 -2.58938e-006 6.01202e-006 -2.29652e-006 -4.00024e-006 -4.06652e-006 1.75509e-007 2.58925e-006 4.06652e-006 -1.75509e-007 -2.58925e-006 -7.42535 -0.877027 10.0476 21.7118 25.8195 23.3224 -0.0407756 -38.7756 0.0579345 23.3307 -2.51387 24.6104 4.28333e-007 5.88159e-007 -4.41972e-007 4.28333e-007 5.88159e-007 -4.41972e-007 4.28333e-007 5.88159e-007 -4.41972e-007 4.28333e-007 5.88159e-007 -4.41972e-007 0.0150151 -9.20758e-005 -4.72398e-006 4.28341e-007 5.88101e-007 -4.42049e-007 4.28333e-007 5.88159e-007 -4.41972e-007 0.0189755 -0.00118903 -5.62873e-005 4.28339e-007 5.88085e-007 -4.42073e-007 4.28333e-007 5.88159e-007 -4.41972e-007 0.0122137 -0.00322863 -0.000668483 4.28324e-007 5.88112e-007 -4.42047e-007 4.28333e-007 5.88159e-007 -4.41972e-007 4.28333e-007 5.88159e-007 -4.41972e-007 4.28333e-007 5.88159e-007 -4.41972e-007 73.3314 -81.9962 70.3167 20.805 79.2355 -25.4138 -5.86172 34.0004 29.8228 1.10908e-006 -5.90848e-007 -2.54696e-006 32.7517 -62.6136 88.2388 -153.455 52.6316 166.496 -33.1489 -13.7505 -50.2964 5.93813e-007 -1.62403e-006 1.52357e-006 
-37.3124 -1.27656 -8.37231 19.3532 -29.3666 18.0641 0.246031 8.08799 0.338654 0.450071 16.1772 0.651703 0.450063 16.1772 0.65171 -14.0031 0.000253444 -8.00311 -16.0023 -1.60541e-006 -7.00198 4.21092 0.77802 -1.16072 -61.692 25.6746 -33.3488 -12.5702 1.3486 -77.4337 17.9751 1.82813 5.22457 4.06929e-006 -1.82403e-007 -2.58404e-006 4.06929e-006 -1.82403e-007 -2.58404e-006 4.06929e-006 -1.82403e-007 -2.58404e-006 4.06929e-006 -1.82403e-007 -2.58404e-006 -0.014628 -8.82194e-005 -2.33743e-006 4.06925e-006 -1.82073e-007 -2.58407e-006 4.06929e-006 -1.82403e-007 -2.58404e-006 -0.0187687 -0.00117217 5.34443e-005 4.06922e-006 -1.81984e-007 -2.58411e-006 4.06929e-006 -1.82403e-007 -2.58404e-006 -0.0122407 -0.00324029 0.000670906 4.06919e-006 -1.82157e-007 -2.58418e-006 4.06929e-006 -1.82403e-007 -2.58404e-006 4.06929e-006 -1.82403e-007 -2.58404e-006 4.06929e-006 -1.82403e-007 -2.58404e-006 -7.42535 -0.877027 10.0476 21.7118 25.8195 23.3224 -0.0407828 -38.7756 0.0579249 23.1476 -2.51772 24.5843 -9.54166e-015 9.54166e-015 6.36111e-015 7.06225e-031 6.36111e-015 -6.36111e-015 3.18055e-015 3.18055e-015 3.18055e-015 -9.54166e-015 9.54166e-015 6.36111e-015 0.0149086 -8.78831e-005 -2.35934e-006 6.36111e-015 7.95139e-015 6.36111e-015 -9.54166e-015 9.54166e-015 6.36111e-015 0.0189555 -0.00119506 -5.86903e-005 1.27355e-006 3.01605e-008 1.20538e-006 -9.54166e-015 9.54166e-015 6.36111e-015 0.0121895 -0.00322317 -0.000661747 3.18055e-015 6.36111e-015 6.36111e-015 -9.54166e-015 9.54166e-015 6.36111e-015 7.06225e-031 6.36111e-015 -6.36111e-015 3.18055e-015 3.18055e-015 3.18055e-015 73.3314 -81.9962 70.3167 20.805 79.2355 -25.4138 -5.86172 34.0004 29.8228 1.10908e-006 -5.90848e-007 -2.54696e-006 32.7517 -62.6136 88.2388 -153.455 52.6316 166.496 -33.1489 -13.7505 -50.2964 5.93813e-007 -1.62403e-006 1.52357e-006 
